# xmcd
#
# Track frame offsets: 
#        150
#        15100
#        33526
#        55121
#        67517
#        83882
#        102076
#        116314
#        134810
#        147018
#        159594
#        175198
#        194710
#
# Disc length: 2789 seconds
#
# Revision: 0
# Processed by: cddbd v1.5.2PL0 Copyright (c) Steve Scherf et al.
# Submitted via: ExactAudioCopy v0.99pb3
#
DISCID=a30ae30d
DTITLE=AJ and The Shapes - AJ and The Shapes
DYEAR=2008
DGENRE=Blues
TTITLE0=My Babe
TTITLE1=Never Let Me Go
TTITLE2=You're Gonna Need Me
TTITLE3=Little Momma
TTITLE4=Herb Stuffing
TTITLE5=Automobile
TTITLE6=Lean Clean Lovin' Machine
TTITLE7=Call Me Up
TTITLE8=Home At Last
TTITLE9=Headed For Hard Times
TTITLE10=All Night Long
TTITLE11=Black Forest Blues
TTITLE12=Hot Damn
EXTD=
EXTT0=
EXTT1=
EXTT2=
EXTT3=
EXTT4=
EXTT5=
EXTT6=
EXTT7=
EXTT8=
EXTT9=
EXTT10=
EXTT11=
EXTT12=
PLAYORDER=
